<svg width="217" height="200" viewBox="0 0 217 200" fill="none" xmlns="http://www.w3.org/2000/svg">
<rect width="200" height="200" fill="#0057A8"/>
<path d="M31.232 83.512C28.376 83.68 25.464 83.456 22.664 82.84C18.296 81.832 14.488 78.808 12.528 74.72C10.456 70.296 9.896 65.144 10.288 60.272C10.568 56.352 11.52 52.264 13.704 48.96C15.328 46.496 17.512 44.256 20.088 42.744C21.264 42.072 22.664 41.904 23.952 41.512C25.24 41.176 26.528 41.008 27.872 40.84C29.776 40.672 31.736 40.728 33.64 41.064C35.656 41.4 37.728 41.792 39.576 42.688C41.76 43.696 43.608 45.6 44.84 47.672C45.96 49.52 46.52 51.648 46.8 53.72C47.248 56.8 47.136 59.936 46.856 63.016C46.576 65.984 45.96 68.896 45.008 71.696C44.336 73.712 43.552 75.672 42.432 77.464C41.256 79.256 39.632 80.768 37.728 81.776C35.712 82.784 33.472 83.4 31.232 83.512ZM24.624 69.12C25.968 70.128 27.872 70.296 29.552 70.072C31.344 69.792 33.136 68.392 33.92 66.768C35.04 64.584 35.208 62.008 35.152 59.6C35.096 58.2 34.872 56.744 34.2 55.512C33.64 54.56 32.8 53.608 31.792 53.048C31.232 52.712 30.504 52.656 29.832 52.544C29.104 52.488 28.376 52.488 27.648 52.712C27.48 52.768 27.312 52.768 27.144 52.712C25.464 53.328 24.12 55.008 23.504 56.688C22.832 58.424 22.608 60.272 22.496 62.12C22.44 63.688 22.552 65.312 23.056 66.824C23.392 67.72 23.896 68.56 24.624 69.12ZM60.191 84.184C58.119 84.52 55.991 84.464 54.031 83.792C53.023 83.4 51.287 81.888 51.063 80.824C50.839 79.872 51.063 75.392 51.119 74.44C51.399 66.32 51.119 58.144 50.671 50.024C50.559 48.624 50.335 47.28 50.279 45.88C50.279 44.872 50.335 43.808 50.783 42.968C51.119 42.184 51.791 41.456 52.631 41.176C54.031 40.784 55.487 40.784 56.943 40.728C57.111 40.728 57.279 40.672 57.503 40.728C59.463 40.728 69.711 41.512 71.615 41.792C74.135 42.184 76.599 42.8 78.839 43.92C80.799 44.872 82.535 46.328 83.879 48.064C86.063 50.864 87.407 54.504 87.967 58.032C88.751 63.184 88.079 68.728 86.063 73.544C84.943 76.12 83.375 78.584 81.303 80.488C79.623 82.056 77.271 83.008 74.975 83.288C73.407 83.456 64.503 84.072 62.991 84.128C62.039 84.184 61.087 84.072 60.191 84.184ZM66.239 70.912C67.751 71.192 69.375 71.304 70.887 70.968C71.783 70.8 72.679 70.464 73.351 69.848C74.023 69.288 74.471 68.504 74.807 67.776C75.647 65.816 75.927 63.688 75.983 61.56C75.983 59.488 75.815 57.36 75.143 55.4C74.919 54.672 74.639 54 74.135 53.496C73.743 53.048 73.183 52.768 72.679 52.544C70.719 51.704 68.535 51.592 66.407 51.536C66.407 53.944 66.239 68.504 66.239 70.912ZM119.071 83.176C116.719 83.456 114.367 83.4 112.015 83.344C110.391 83.288 100.871 83.232 99.2466 83.12C97.9026 83.064 96.5026 83.008 95.2146 82.56C94.2626 82.28 93.3666 81.664 92.6946 80.88C92.3586 80.544 92.0786 80.04 92.0226 79.536C91.8546 78.304 92.1346 71.92 92.1906 70.688C92.2466 67.776 92.1346 64.864 92.1346 61.896C92.1346 61.168 92.1346 57.136 92.0786 56.408C91.9106 55.4 91.6306 49.24 91.5746 48.176C91.4066 46.888 91.1826 45.544 91.3506 44.256C91.4626 43.136 92.0226 41.904 92.9746 41.344C93.1986 41.176 94.2626 40.728 94.5986 40.672C94.9346 40.616 95.3826 40.672 95.7186 40.672C97.7906 40.504 99.9186 40.448 101.935 40.784C102.719 40.896 106.751 40.784 107.535 40.784C108.879 40.784 110.223 40.784 111.567 40.672C113.303 40.56 115.039 40.56 116.775 40.392C117.895 40.28 119.071 40 120.191 40.28C120.863 40.448 121.591 40.84 121.927 41.456C122.767 42.856 122.543 47.336 122.151 48.904C121.927 49.912 121.479 51.032 120.583 51.592C119.687 52.208 118.511 52.32 117.447 52.432C114.087 52.656 110.727 52.488 107.423 52.432C107.423 53.664 107.367 54.84 107.367 56.016C110.559 56.016 113.807 55.96 116.999 55.68C118.063 55.568 119.071 55.4 120.079 55.512C120.919 55.568 121.871 56.016 122.263 56.744C122.767 57.64 122.767 60.888 122.655 61.896C122.599 63.128 122.207 64.528 121.311 65.368C120.415 66.264 118.959 66.376 117.727 66.432C114.199 66.656 110.727 66.544 107.255 66.488C107.255 68.224 107.255 69.904 107.199 71.64C108.879 71.64 110.559 71.696 112.239 71.528C113.975 71.416 115.711 71.416 117.391 71.248C118.511 71.136 119.687 70.912 120.807 71.136C121.535 71.304 122.207 71.696 122.599 72.312C123.439 73.712 123.215 78.248 122.823 79.816C122.599 80.712 122.263 81.552 121.591 82.168C120.919 82.784 119.967 83.064 119.071 83.176Z" fill="#FF7E8E"/>
<path d="M123.68 148.176C121.328 148.456 118.976 148.4 116.624 148.344C115 148.288 105.48 148.232 103.856 148.12C102.512 148.064 101.112 148.008 99.824 147.56C98.872 147.28 97.976 146.664 97.304 145.88C96.968 145.544 96.688 145.04 96.632 144.536C96.464 143.304 96.744 136.92 96.8 135.688C96.856 132.776 96.744 129.864 96.744 126.896C96.744 126.168 96.744 122.136 96.688 121.408C96.52 120.4 96.24 114.24 96.184 113.176C96.016 111.888 95.792 110.544 95.96 109.256C96.072 108.136 96.632 106.904 97.584 106.344C98.704 105.616 100.16 105.672 101.504 105.616C103.576 105.504 105.76 105.448 107.72 106.064C108.84 106.456 110.016 107.072 110.688 108.024C111.584 109.312 111.752 110.992 111.864 112.56C112.144 116.648 111.92 120.792 111.92 124.88C111.92 126.336 111.808 135.184 111.808 136.64C113.488 136.64 115.168 136.696 116.848 136.528C118.584 136.416 120.32 136.416 122 136.248C123.12 136.136 124.296 135.912 125.416 136.136C126.144 136.304 126.816 136.696 127.208 137.312C128.048 138.712 127.824 143.248 127.432 144.816C127.208 145.712 126.872 146.552 126.2 147.168C125.528 147.784 124.576 148.064 123.68 148.176ZM140.51 148.176C138.214 148.848 135.582 148.792 133.342 148.008C132.222 147.56 130.542 146.104 130.374 144.928C130.262 144.088 130.43 139.664 130.43 138.824C130.598 134.848 130.486 130.872 130.486 126.84C130.486 124.936 130.542 122.976 130.374 121.016C130.15 118.664 130.15 116.312 129.982 113.96C129.926 112.672 129.758 111.384 129.646 110.096C129.59 109.032 129.702 107.968 130.15 107.072C130.43 106.512 130.822 106.008 131.382 105.672C131.83 105.392 132.334 105.28 132.894 105.168C134.518 104.944 136.198 104.944 137.822 104.944C139.558 105 141.462 105.224 142.974 106.12C143.702 106.568 144.374 107.24 144.71 108.024C145.158 108.808 145.326 109.76 145.438 110.656C145.886 114.072 145.774 117.488 145.718 120.848C145.662 123.144 145.606 136.752 145.494 139.048C145.382 140.504 145.27 141.96 144.934 143.416C144.71 144.424 144.374 145.544 143.646 146.328C142.862 147.224 141.686 147.784 140.51 148.176ZM179.561 148.624C177.489 148.96 174.185 148.68 173.457 146.664C173.289 146.104 172.729 143.192 172.617 142.632C168.921 142.128 165.113 141.904 161.417 142.296C161.193 142.856 160.129 146.104 159.905 146.664C159.121 148.624 156.321 148.792 154.305 148.288C152.849 147.896 151.337 147.896 149.993 147.28C149.097 146.888 148.369 145.992 148.257 145.04C147.865 142.408 150.945 133.056 151.785 130.536C153.633 124.768 155.537 119 157.721 113.4C158.393 111.72 159.009 110.096 159.905 108.528C160.241 107.856 160.745 107.24 161.361 106.848C162.369 106.176 163.657 105.952 164.833 105.84C166.905 105.616 173.569 105.448 175.361 106.4C176.761 107.184 177.545 108.752 178.105 110.208C179.001 112.56 179.729 114.912 180.513 117.264C181.745 121.24 182.921 125.216 184.097 129.192C185.049 132.552 186.001 135.856 186.673 139.272C186.953 140.728 187.177 142.128 187.289 143.584C187.345 144.256 187.345 144.984 187.121 145.6C186.841 146.608 185.721 147.336 184.657 147.728C183.033 148.288 181.297 148.344 179.561 148.624ZM162.873 135.688C166.121 135.632 169.369 135.576 172.561 135.968C171.161 130.424 169.985 124.768 168.417 119.224C166.345 124.6 164.777 130.2 162.873 135.688Z" fill="#FF7E8E"/>
</svg>
