<svg width="13" height="11" viewBox="0 0 13 11" fill="none" xmlns="http://www.w3.org/2000/svg">
<path d="M7.50681 10.944C6.33081 11.056 5.09883 11 3.92283 10.832C3.25083 10.776 2.4668 10.664 1.9068 10.272C1.2908 9.87999 0.78681 9.26399 0.56281 8.59199C-0.33319 6.63199 -0.277194 3.10399 1.45881 1.75999C1.96281 1.36799 2.69083 1.2 3.30683 1.088C4.87483 0.919996 6.44281 0.807993 8.01081 0.863993C9.13081 0.919993 10.5308 1.144 11.1468 2.096C11.8748 3.328 12.0428 4.78399 12.0428 6.18399C12.0428 7.41599 11.8748 8.87199 10.9788 9.71199C10.1388 10.608 8.73881 10.888 7.50681 10.944Z" fill="white"/>
</svg>
