<svg width="13" height="11" viewBox="0 0 13 11" fill="none" xmlns="http://www.w3.org/2000/svg">
<path d="M7.78025 10.944C6.60425 11.056 5.37226 11 4.19626 10.832C3.52426 10.776 2.74024 10.664 2.18024 10.272C1.56424 9.87999 1.06025 9.26399 0.836247 8.59199C-0.0597528 6.63199 -0.00375688 3.10399 1.73224 1.75999C2.23624 1.36799 2.96427 1.2 3.58027 1.088C5.14827 0.919996 6.71625 0.807993 8.28425 0.863993C9.40425 0.919993 10.8043 1.144 11.4203 2.096C12.1483 3.328 12.3163 4.78399 12.3163 6.18399C12.3163 7.41599 12.1483 8.87199 11.2523 9.71199C10.4123 10.608 9.01225 10.888 7.78025 10.944Z" fill="white"/>
</svg>
