<svg width="13" height="11" viewBox="0 0 13 11" fill="none" xmlns="http://www.w3.org/2000/svg">
<path d="M8.05369 10.944C6.87768 11.056 5.6457 11 4.4697 10.832C3.7977 10.776 3.01368 10.664 2.45368 10.272C1.83768 9.87999 1.33368 9.26399 1.10968 8.59199C0.213685 6.63199 0.269681 3.10399 2.00568 1.75999C2.50968 1.36799 3.2377 1.2 3.8537 1.088C5.4217 0.919996 6.98968 0.807993 8.55768 0.863993C9.67768 0.919993 11.0777 1.144 11.6937 2.096C12.4217 3.328 12.5897 4.78399 12.5897 6.18399C12.5897 7.41599 12.4217 8.87199 11.5257 9.71199C10.6857 10.608 9.28569 10.888 8.05369 10.944Z" fill="white"/>
</svg>
