<svg width="33" height="44" viewBox="0 0 33 44" fill="none" xmlns="http://www.w3.org/2000/svg">
<path d="M27.9716 43.176C25.6196 43.456 23.2676 43.4 20.9156 43.344C19.2916 43.288 9.77164 43.232 8.14764 43.12C6.80364 43.064 5.40364 43.008 4.11564 42.56C3.16364 42.28 2.26764 41.664 1.59564 40.88C1.25964 40.544 0.979636 40.04 0.923636 39.536C0.755636 38.304 1.03564 31.92 1.09164 30.688C1.14764 27.776 1.03564 24.864 1.03564 21.896C1.03564 21.168 1.03564 17.136 0.979636 16.408C0.811636 15.4 0.531638 9.23999 0.475638 8.17599C0.307638 6.88799 0.0836388 5.54399 0.251639 4.25599C0.363639 3.13599 0.923639 1.90399 1.87564 1.34399C2.09964 1.17599 3.16364 0.72799 3.49964 0.671991C3.83564 0.615991 4.28364 0.671991 4.61964 0.671991C6.69164 0.50399 8.81964 0.44799 10.8356 0.783989C11.6196 0.895991 15.6516 0.783989 16.4356 0.783989C17.7796 0.783989 19.1236 0.783989 20.4676 0.671991C22.2036 0.559992 23.9396 0.559992 25.6756 0.391991C26.7956 0.279989 27.9716 -1.06394e-05 29.0916 0.279989C29.7636 0.44799 30.4916 0.839992 30.8276 1.45599C31.6676 2.85599 31.4436 7.33599 31.0516 8.90399C30.8276 9.91199 30.3796 11.032 29.4836 11.592C28.5876 12.208 27.4116 12.32 26.3476 12.432C22.9876 12.656 19.6276 12.488 16.3236 12.432C16.3236 13.664 16.2676 14.84 16.2676 16.016C19.4596 16.016 22.7076 15.96 25.8996 15.68C26.9636 15.568 27.9716 15.4 28.9796 15.512C29.8196 15.568 30.7716 16.016 31.1636 16.744C31.6676 17.64 31.6676 20.888 31.5556 21.896C31.4996 23.128 31.1076 24.528 30.2116 25.368C29.3156 26.264 27.8596 26.376 26.6276 26.432C23.0996 26.656 19.6276 26.544 16.1556 26.488C16.1556 28.224 16.1556 29.904 16.0996 31.64C17.7796 31.64 19.4596 31.696 21.1396 31.528C22.8756 31.416 24.6116 31.416 26.2916 31.248C27.4116 31.136 28.5876 30.912 29.7076 31.136C30.4356 31.304 31.1076 31.696 31.4996 32.312C32.3396 33.712 32.1156 38.248 31.7236 39.816C31.4996 40.712 31.1636 41.552 30.4916 42.168C29.8196 42.784 28.8676 43.064 27.9716 43.176Z" fill="white"/>
</svg>
