<svg width="33" height="44" viewBox="0 0 33 44" fill="none" xmlns="http://www.w3.org/2000/svg">
<path d="M28.5576 43.176C26.2056 43.456 23.8536 43.4 21.5016 43.344C19.8776 43.288 10.3576 43.232 8.73357 43.12C7.38957 43.064 5.98957 43.008 4.70157 42.56C3.74957 42.28 2.85357 41.664 2.18157 40.88C1.84557 40.544 1.56557 40.04 1.50957 39.536C1.34157 38.304 1.62157 31.92 1.67757 30.688C1.73357 27.776 1.62157 24.864 1.62157 21.896C1.62157 21.168 1.62157 17.136 1.56557 16.408C1.39757 15.4 1.11758 9.23999 1.06158 8.17599C0.893575 6.88799 0.669576 5.54399 0.837576 4.25599C0.949576 3.13599 1.50957 1.90399 2.46157 1.34399C2.68557 1.17599 3.74956 0.72799 4.08556 0.671991C4.42156 0.615991 4.86957 0.671991 5.20557 0.671991C7.27757 0.50399 9.40558 0.44799 11.4216 0.783989C12.2056 0.895991 16.2376 0.783989 17.0216 0.783989C18.3656 0.783989 19.7096 0.783989 21.0536 0.671991C22.7896 0.559992 24.5256 0.559992 26.2616 0.391991C27.3816 0.279989 28.5576 -1.06394e-05 29.6776 0.279989C30.3496 0.44799 31.0776 0.839992 31.4136 1.45599C32.2536 2.85599 32.0296 7.33599 31.6376 8.90399C31.4136 9.91199 30.9656 11.032 30.0696 11.592C29.1736 12.208 27.9976 12.32 26.9336 12.432C23.5736 12.656 20.2136 12.488 16.9096 12.432C16.9096 13.664 16.8536 14.84 16.8536 16.016C20.0456 16.016 23.2936 15.96 26.4856 15.68C27.5496 15.568 28.5576 15.4 29.5656 15.512C30.4056 15.568 31.3576 16.016 31.7496 16.744C32.2536 17.64 32.2536 20.888 32.1416 21.896C32.0856 23.128 31.6936 24.528 30.7976 25.368C29.9016 26.264 28.4456 26.376 27.2136 26.432C23.6856 26.656 20.2136 26.544 16.7416 26.488C16.7416 28.224 16.7416 29.904 16.6856 31.64C18.3656 31.64 20.0456 31.696 21.7256 31.528C23.4616 31.416 25.1976 31.416 26.8776 31.248C27.9976 31.136 29.1736 30.912 30.2936 31.136C31.0216 31.304 31.6936 31.696 32.0856 32.312C32.9256 33.712 32.7016 38.248 32.3096 39.816C32.0856 40.712 31.7496 41.552 31.0776 42.168C30.4056 42.784 29.4536 43.064 28.5576 43.176Z" fill="white"/>
</svg>
