<svg width="35" height="43" viewBox="0 0 35 43" fill="none" xmlns="http://www.w3.org/2000/svg">
<path d="M28.5354 42.504C24.2794 42.616 20.0234 42.896 15.7674 42.896C13.3594 42.896 10.8954 42.28 8.76744 41.216C6.97544 40.376 5.29546 39.088 4.11946 37.464C1.93546 34.328 0.927442 30.408 0.423442 26.6C-0.192558 21.392 0.087436 15.848 1.87944 10.92C2.83144 8.11999 4.45545 5.43199 6.69545 3.58399C8.48745 2.07199 10.8394 1.17599 13.1354 0.671993C16.6074 -8.04663e-06 20.1915 0.0559946 23.6635 0.0559946C25.3995 0.0559946 27.1354 -0.112007 28.8154 0.111994C29.9914 0.223992 31.1675 0.559995 32.0635 1.28799C33.2955 2.29599 33.0715 5.992 32.9035 7.61599C32.8475 8.39999 32.6235 10.416 32.0075 10.864C30.2155 12.32 23.3834 11.368 21.0874 11.312C19.4634 11.256 17.7274 11.256 16.1594 11.704C14.8714 12.096 13.6954 12.824 12.7994 13.832C11.7914 14.896 11.1755 16.408 10.9515 17.92C10.6715 20.048 10.7275 22.288 11.2315 24.36C11.6235 25.872 12.3514 27.44 13.5274 28.448C14.1994 29.008 14.9834 29.4 15.8234 29.568C16.9994 29.848 22.8235 30.016 24.0555 29.96C24.1675 28.784 24.2795 27.608 24.3355 26.432C22.9915 26.432 18.6795 26.656 17.5595 25.872C16.8315 25.368 16.6635 24.192 16.6075 23.296C16.5515 22.064 16.7195 19.376 17.6155 18.648C17.8395 18.48 18.0635 18.424 18.2875 18.368C19.7995 17.976 26.4074 18.088 27.9754 18.2C28.9834 18.312 29.9915 18.2 31.0555 18.2C31.9515 18.2 32.9594 18.368 33.5755 19.04C34.1914 19.6 34.4154 20.608 34.4714 21.448C34.5274 22.624 34.3035 23.8 34.1914 25.032C34.0794 26.32 33.9114 33.712 33.8554 35C33.8554 36.848 33.3515 38.752 32.3435 40.264C31.7835 41.104 30.9994 41.888 29.9914 42.28C29.5434 42.448 29.0394 42.504 28.5354 42.504Z" fill="white"/>
</svg>
