<svg width="18" height="45" viewBox="0 0 18 45" fill="none" xmlns="http://www.w3.org/2000/svg">
<path d="M11.8031 44.176C9.50713 44.848 6.87513 44.792 4.63513 44.008C3.51513 43.56 1.83511 42.104 1.66711 40.928C1.55511 40.088 1.72311 35.664 1.72311 34.824C1.89111 30.848 1.77911 26.872 1.77911 22.84C1.77911 20.936 1.83511 18.976 1.66711 17.016C1.44311 14.664 1.44312 12.312 1.27512 9.96C1.21912 8.672 1.05112 7.384 0.939118 6.096C0.883118 5.032 0.995115 3.968 1.44312 3.072C1.72312 2.512 2.11514 2.008 2.67514 1.672C3.12314 1.392 3.62713 1.28 4.18713 1.168C5.81113 0.944 7.49111 0.944 9.11511 0.944C10.8511 1 12.7551 1.224 14.2671 2.12C14.9951 2.568 15.6671 3.24 16.0031 4.024C16.4511 4.808 16.6191 5.76 16.7311 6.656C17.1791 10.072 17.0671 13.488 17.0111 16.848C16.9551 19.144 16.8991 32.752 16.7871 35.048C16.6751 36.504 16.5631 37.96 16.2271 39.416C16.0031 40.424 15.6671 41.544 14.9391 42.328C14.1551 43.224 12.9791 43.784 11.8031 44.176Z" fill="white"/>
</svg>
