<svg width="42" height="45" viewBox="0 0 42 45" fill="none" xmlns="http://www.w3.org/2000/svg">
<path d="M11.3629 43.952C9.17894 44.512 6.71494 44.456 4.58694 43.672C3.46694 43.224 1.78694 41.768 1.61894 40.592C1.50694 39.752 1.67494 35.328 1.67494 34.488C1.84294 30.736 1.78694 26.984 1.73094 23.232C1.67494 21.048 1.84294 18.864 1.61894 16.68C1.39494 14.328 1.39494 11.976 1.22694 9.68C1.17094 8.336 1.00293 7.048 0.89093 5.76C0.83493 4.696 0.946943 3.632 1.39494 2.736C1.67494 2.176 2.06694 1.672 2.62694 1.336C3.07494 1.056 3.57893 0.944003 4.13893 0.832004C5.76293 0.608004 7.44294 0.608004 9.06694 0.608004C10.4669 0.664003 11.9229 0.832004 13.2669 1.336C14.0509 1.672 14.8349 2.12 15.3949 2.792C16.8509 4.472 17.1309 6.936 17.9149 9.064C18.0829 9.624 19.4829 12.424 19.7069 12.928C21.8349 17.408 23.9069 21.944 25.9229 26.536C25.9789 25.136 26.2029 17.352 26.0909 15.952C25.9229 13.6 25.9789 11.248 25.9229 8.896C25.8669 7.608 25.7549 6.264 25.6989 4.976C25.6989 3.968 25.8109 2.848 26.3149 1.952C26.5949 1.448 26.9869 0.944003 27.5469 0.664003C27.9949 0.384003 28.5549 0.272005 29.0589 0.216002C30.1229 0.0480042 31.2429 0.0480042 32.3069 0.0480042C34.2669 0.0480042 36.3949 0.216002 38.2429 1C39.2509 1.392 40.2029 2.12 40.7069 3.128C41.4909 4.584 41.4909 6.432 41.5469 8.112C41.6589 10.856 41.5469 13.544 41.3789 16.232C41.2669 18.528 40.8189 32.136 40.5949 34.432C40.4829 35.888 40.3149 37.344 39.9229 38.744C39.6429 39.92 39.1389 41.152 38.2429 41.936C37.0669 43 35.3309 43.504 33.7069 43.728C33.5389 43.728 32.7549 43.728 32.5869 43.784C31.7469 44.064 28.2189 44.064 27.3229 43.952C26.2589 43.84 23.9629 43.448 23.4029 42.496C21.1069 38.464 18.9789 34.376 16.7949 30.232C16.7949 33.536 16.8509 36.896 15.9549 40.032C15.6749 40.872 15.2269 41.656 14.6109 42.272C13.7149 43.112 12.5389 43.616 11.3629 43.952Z" fill="white"/>
</svg>
