<svg width="42" height="45" viewBox="0 0 42 45" fill="none" xmlns="http://www.w3.org/2000/svg">
<path d="M11.0973 43.952C8.91332 44.512 6.44932 44.456 4.32132 43.672C3.20132 43.224 1.5213 41.768 1.3533 40.592C1.2413 39.752 1.4093 35.328 1.4093 34.488C1.5773 30.736 1.5213 26.984 1.4653 23.232C1.4093 21.048 1.5773 18.864 1.3533 16.68C1.1293 14.328 1.1293 11.976 0.961304 9.68C0.905304 8.336 0.737306 7.048 0.625305 5.76C0.569305 4.696 0.681303 3.632 1.1293 2.736C1.4093 2.176 1.8013 1.672 2.3613 1.336C2.8093 1.056 3.31332 0.944003 3.87332 0.832004C5.49732 0.608004 7.1773 0.608004 8.8013 0.608004C10.2013 0.664003 11.6573 0.832004 13.0013 1.336C13.7853 1.672 14.5693 2.12 15.1293 2.792C16.5853 4.472 16.8653 6.936 17.6493 9.064C17.8173 9.624 19.2173 12.424 19.4413 12.928C21.5693 17.408 23.6413 21.944 25.6573 26.536C25.7133 25.136 25.9373 17.352 25.8253 15.952C25.6573 13.6 25.7133 11.248 25.6573 8.896C25.6013 7.608 25.4893 6.264 25.4333 4.976C25.4333 3.968 25.5453 2.848 26.0493 1.952C26.3293 1.448 26.7213 0.944003 27.2813 0.664003C27.7293 0.384003 28.2893 0.272005 28.7933 0.216002C29.8573 0.0480042 30.9773 0.0480042 32.0413 0.0480042C34.0013 0.0480042 36.1293 0.216002 37.9773 1C38.9853 1.392 39.9373 2.12 40.4413 3.128C41.2253 4.584 41.2253 6.432 41.2813 8.112C41.3933 10.856 41.2813 13.544 41.1133 16.232C41.0013 18.528 40.5533 32.136 40.3293 34.432C40.2173 35.888 40.0493 37.344 39.6573 38.744C39.3773 39.92 38.8733 41.152 37.9773 41.936C36.8013 43 35.0653 43.504 33.4413 43.728C33.2733 43.728 32.4893 43.728 32.3213 43.784C31.4813 44.064 27.9533 44.064 27.0573 43.952C25.9933 43.84 23.6973 43.448 23.1373 42.496C20.8413 38.464 18.7133 34.376 16.5293 30.232C16.5293 33.536 16.5853 36.896 15.6893 40.032C15.4093 40.872 14.9613 41.656 14.3453 42.272C13.4493 43.112 12.2733 43.616 11.0973 43.952Z" fill="white"/>
</svg>
