<svg width="38" height="44" viewBox="0 0 38 44" fill="none" xmlns="http://www.w3.org/2000/svg">
<path d="M10.5257 43.56C8.00568 44.232 4.98168 44.064 2.74168 42.72C1.95768 42.272 1.17368 41.544 0.949677 40.648C0.669677 39.64 0.893677 34.992 0.949677 33.984C1.22968 25.92 0.949675 17.856 0.501675 9.84801C0.389675 7.944 -0.0583232 5.98401 0.165677 4.08C0.277677 3.072 0.669675 2.06401 1.39768 1.392C1.90168 0.888005 2.57368 0.664004 3.24568 0.552006C4.53368 0.272006 5.93368 0.272006 7.27768 0.216003C9.46168 0.216003 11.6457 0.328005 13.8297 0.384005C16.3497 0.496003 18.8697 0.216003 21.4457 0.216003C24.8617 0.160004 28.4457 1.05601 31.3577 2.84801C37.2937 6.376 38.0217 16.4 35.6137 22.896C34.3817 26.032 32.0857 29.112 29.1177 30.568C29.7897 32.528 30.9657 34.32 32.4217 35.776C33.8217 37.064 35.6697 37.848 37.0137 39.248C37.4057 39.696 37.6857 40.312 37.6297 40.872C37.5737 41.544 37.1817 42.216 36.7337 42.72C35.9497 43.616 32.9257 43.672 31.7497 43.728C30.1257 43.728 28.5017 43.896 26.8777 43.728C25.8137 43.616 24.6937 43.28 23.7977 42.664C22.3417 41.656 21.2777 40.2 20.3817 38.688C19.0937 36.56 18.1417 34.208 17.0217 31.968C16.8537 31.912 16.2377 31.912 16.0697 31.968C16.0137 34.432 15.9017 37.008 15.2297 39.416C14.7257 41.432 12.5417 43 10.5257 43.56ZM16.1257 21.44C18.1417 21.496 20.2697 21.552 22.0057 20.6C22.9017 20.04 23.5737 19.032 23.7977 17.968C24.3577 15.84 24.2457 12.2 22.3977 11.024C21.6697 10.576 20.8297 10.352 19.9897 10.296C18.7017 10.24 17.4137 10.464 16.1257 10.744C16.1817 12.032 16.1817 20.096 16.1257 21.44Z" fill="white"/>
</svg>
