<svg width="36" height="46" viewBox="0 0 36 46" fill="none" xmlns="http://www.w3.org/2000/svg">
<path d="M23.649 45.408C21.633 45.632 11.497 45.52 9.48101 45.352C7.46501 45.24 5.225 44.848 3.545 43.616C3.153 43.28 2.81701 42.944 2.64901 42.496C2.14501 41.488 2.14501 37.792 2.31301 36.672C2.42501 35.776 2.537 34.824 3.097 34.096C3.657 33.2 4.665 32.528 5.673 32.36C6.681 32.192 11.665 32.248 12.673 32.248C14.297 32.304 21.241 32.696 22.809 32.192C23.929 31.8 24.601 30.624 23.929 29.616C23.593 29.168 21.969 28.72 21.465 28.552C17.545 27.32 13.457 26.368 9.53701 25.136C8.19301 24.744 6.849 24.296 5.617 23.624C3.881 22.672 2.593 20.936 1.809 19.144C0.577002 16.288 0.353005 12.872 0.969005 9.792C1.47301 7.328 2.64901 4.864 4.44101 3.184C5.67301 2.008 7.297 1.168 8.977 0.832004C14.353 -0.175996 19.897 0.104003 25.385 0.0480042C26.561 0.0480042 27.737 0.216002 28.857 0.440002C29.809 0.608004 30.705 0.832004 31.601 1.28C34.065 2.512 33.617 6.6 32.833 9.288C32.609 10.016 31.265 11.696 30.593 12.144C28.745 13.264 20.961 11.528 18.833 11.64C17.601 11.696 15.809 12.368 15.585 13.6C15.473 14.272 15.977 15 16.481 15.392C17.769 16.512 19.505 17.072 21.129 17.576C23.985 18.472 27.065 18.976 29.753 20.32C32.049 21.496 33.897 23.96 34.569 26.48C35.409 29.784 35.241 33.48 34.233 36.784C33.449 39.248 32.105 41.768 30.033 43.336C28.241 44.624 25.889 45.128 23.649 45.408Z" fill="white"/>
</svg>
