<svg width="37" height="45" viewBox="0 0 37 45" fill="none" xmlns="http://www.w3.org/2000/svg">
<path d="M21.1211 44.288C18.9371 44.848 16.4731 44.736 14.3451 44.008C13.2251 43.56 11.5451 42.104 11.3771 40.928C11.2651 40.088 11.4331 35.664 11.4891 34.824C11.6011 30.848 11.4891 26.872 11.4891 22.84C11.4891 20.936 11.6011 18.976 11.3771 17.016C11.2091 15.392 11.2091 13.824 11.0971 12.2C9.24906 12.144 7.34506 12.088 5.49706 11.808C4.48906 11.64 3.36907 11.416 2.52907 10.8C1.74507 10.24 1.18506 9.344 0.905062 8.44799C0.289062 6.76799 0.345062 4.80799 0.849062 3.12799C1.18506 2.06399 2.08107 0.887993 3.20107 0.607993C4.15307 0.327993 8.29707 0.551994 9.24907 0.607993C13.0571 0.719992 16.8651 0.607993 20.6731 0.607993C21.9611 0.663992 29.1851 0.271994 30.4731 0.215992C31.7051 0.103993 32.9931 -0.120007 34.2811 0.103993C35.0651 0.215992 35.9051 0.607993 36.3531 1.27999C37.0251 2.23199 37.0251 5.70399 36.9691 6.82399C36.8571 8.39199 36.4091 10.184 35.1771 11.136C34.5611 11.64 33.8331 11.864 33.1051 12.032C32.1531 12.2 27.6731 12.368 26.7771 12.368C26.7771 14.664 26.6091 28.608 26.5531 30.904C26.5531 34.096 26.5531 37.344 25.7131 40.368C25.4331 41.208 24.9851 41.992 24.3691 42.608C23.4731 43.448 22.2971 43.952 21.1211 44.288Z" fill="white"/>
</svg>
